<?xml version="1.0" encoding="UTF-8" standalone="no"?>
<!-- Created with Inkscape (http://www.inkscape.org/) -->

<svg
   width="210mm"
   height="297mm"
   viewBox="0 0 210 297"
   version="1.1"
   id="svg5"
   inkscape:version="1.1.1 (c3084ef, 2021-09-22)"
   sodipodi:docname="sucker.svg"
   xmlns:inkscape="http://www.inkscape.org/namespaces/inkscape"
   xmlns:sodipodi="http://sodipodi.sourceforge.net/DTD/sodipodi-0.dtd"
   xmlns="http://www.w3.org/2000/svg"
   xmlns:svg="http://www.w3.org/2000/svg">
  <sodipodi:namedview
     id="namedview7"
     pagecolor="#ffffff"
     bordercolor="#666666"
     borderopacity="1.0"
     inkscape:pageshadow="2"
     inkscape:pageopacity="0.0"
     inkscape:pagecheckerboard="0"
     inkscape:document-units="mm"
     showgrid="false"
     inkscape:zoom="0.64052329"
     inkscape:cx="397.33138"
     inkscape:cy="579.99452"
     inkscape:window-width="1680"
     inkscape:window-height="1005"
     inkscape:window-x="0"
     inkscape:window-y="23"
     inkscape:window-maximized="0"
     inkscape:current-layer="layer1" />
  <defs
     id="defs2" />
  <g
     inkscape:label="Layer 1"
     inkscape:groupmode="layer"
     id="layer1">
    <text
       xml:space="preserve"
       style="font-style:normal;font-variant:normal;font-weight:normal;font-stretch:normal;font-size:168.826px;line-height:1.25;font-family:'M+ 1p';-inkscape-font-specification:'M+ 1p, Normal';font-variant-ligatures:normal;font-variant-caps:normal;font-variant-numeric:normal;font-variant-east-asian:normal;fill:#800000;fill-opacity:1;stroke:none;stroke-width:4.22068"
       x="16.370749"
       y="224.26071"
       id="text561"
       transform="scale(1.0355553,0.96566547)"><tspan
         sodipodi:role="line"
         id="tspan559"
         style="font-style:normal;font-variant:normal;font-weight:normal;font-stretch:normal;font-size:168.826px;font-family:'M+ 1p';-inkscape-font-specification:'M+ 1p, Normal';font-variant-ligatures:normal;font-variant-caps:normal;font-variant-numeric:normal;font-variant-east-asian:normal;fill:#800000;stroke-width:4.22068"
         x="16.370749"
         y="224.26071">吞</tspan></text>
    <path
       style="fill:#800000;stroke-width:0.264583"
       id="path1915"
       d="m 63.795716,201.36272 c 3.954227,-1.63124 8.294934,-2.17532 12.552365,-1.99837 1.215951,0.0505 2.424523,0.21459 3.636783,0.32189 1.21059,0.18755 2.428536,0.33259 3.631776,0.56263 4.484045,0.85727 9.237004,2.21 13.352127,4.21113 1.061137,0.51602 2.064448,1.14333 3.096673,1.715 3.63711,2.21793 6.65631,5.19522 9.52008,8.30662 0,0 3.18422,-1.93646 3.18422,-1.93646 v 0 c -2.93786,-3.098 -5.9954,-6.1001 -9.65417,-8.35701 -1.03684,-0.58461 -2.04305,-1.22721 -3.11051,-1.75381 -4.128795,-2.03683 -8.914851,-3.38931 -13.42089,-4.27149 -1.206752,-0.23625 -2.428441,-0.38849 -3.642664,-0.58274 -1.213753,-0.12042 -2.423274,-0.29635 -3.641257,-0.36125 -4.181935,-0.22283 -8.471469,0.21424 -12.402606,1.70463 0,0 -3.101927,2.43923 -3.101927,2.43923 z" />
    <path
       style="fill:#800000;stroke-width:0.264583"
       id="path1923"
       d="m 98.185776,204.20359 c 3.880484,-1.833 7.973554,-3.09334 12.279424,-3.37308 4.15696,-0.27007 6.09382,0.0928 10.2299,0.50042 1.63361,0.29992 3.29287,0.48371 4.90084,0.89975 6.20978,1.60669 11.7342,4.9312 16.80936,8.75791 0.96212,0.72544 1.8823,1.50488 2.82345,2.25732 0,0 3.07429,-1.93438 3.07429,-1.93438 v 0 c -6.01653,-4.66554 -12.36679,-9.11387 -19.84338,-11.08276 -1.61671,-0.42574 -3.28786,-0.6083 -4.93179,-0.91245 -4.06424,-0.42559 -6.1392,-0.80239 -10.22525,-0.60272 -4.19542,0.20501 -8.22348,1.3106 -12.02716,3.05323 0,0 -3.089684,2.43676 -3.089684,2.43676 z" />
    <path
       style="fill:#800000;stroke-width:0.264583"
       id="path1931"
       d="m 97.851827,172.02494 c 0.307382,0.31402 1.251664,1.25271 1.472803,1.59327 0.94856,1.46079 1.27851,3.32773 0.93211,5.03956 -0.13797,0.68177 -0.456797,1.31406 -0.685193,1.97109 -1.043591,2.51138 -3.665321,4.71232 -3.438898,7.6463 0.02992,0.38765 0.18175,0.75608 0.272626,1.13412 0.226666,0.3278 0.40485,0.6951 0.679998,0.98342 0.772369,0.80933 2.30944,1.67178 3.408297,1.90558 0.3914,0.0833 0.83211,0.22782 1.1986,0.0671 1.51811,-0.66553 2.8728,-1.65449 4.3092,-2.48173 0.20397,-0.38391 0.47893,-0.73784 0.61191,-1.15173 0.66501,-2.06981 -0.48628,-4.33325 -1.33231,-6.17281 -1.31377,-2.39586 -1.61064,-5.06467 -1.74024,-7.74693 0.0484,-2.21866 -0.0188,-1.14578 0.18591,-3.21957 0,0 -3.44233,1.71605 -3.44233,1.71605 v 0 c -0.1624,2.09635 -0.11047,1.01141 -0.14239,3.25543 0.12491,2.73805 0.41149,5.46358 1.75392,7.90986 0.80026,1.6996 1.98422,3.92103 1.17658,5.82622 -0.1583,0.37344 -0.45914,0.66876 -0.6887,1.00315 0.81721,-0.40544 1.76999,-0.61004 2.45165,-1.21632 0.28183,-0.25066 -0.75781,0.0978 -1.13075,0.0415 -1.02041,-0.15409 -2.54663,-0.97946 -3.27057,-1.70819 -0.24616,-0.2478 -0.40391,-0.56998 -0.60586,-0.85496 -0.07649,-0.34055 -0.210841,-0.67311 -0.22946,-1.02164 -0.148103,-2.77246 2.50623,-5.05959 3.39786,-7.52396 0.21936,-0.69212 0.53096,-1.36153 0.65806,-2.07637 0.31871,-1.79249 -0.0512,-3.78488 -1.00522,-5.33 -0.0955,-0.15475 -1.26963,-1.46281 -1.4353,-1.64889 0,0 -3.362303,2.06042 -3.362303,2.06042 z" />
  </g>
</svg>
